HIERARCHY
ROOT Hips
{
	OFFSET 0.00 0.00 0.00
	CHANNELS 6 Xposition Yposition Zposition Xrotation Yrotation Zrotation
	JOINT RightUpLeg
	{
		OFFSET -3.76699 0.00000 0.00000
		CHANNELS 3 Xrotation Yrotation Zrotation
		JOINT RightLeg
		{
			OFFSET 0.00000 -18.01768 0.00000
			CHANNELS 3 Xrotation Yrotation Zrotation
			JOINT RightFoot
			{
				OFFSET 0.00000 -16.88108 0.00000
				CHANNELS 3 Xrotation Yrotation Zrotation
				JOINT RightToeBase
				{
					OFFSET 0.00000 -1.49359 5.57418
					CHANNELS 3 Xrotation Yrotation Zrotation
					End Site
					{
						OFFSET 0.00000 0.00000 2.95275
					}
				}
			}
		}
	}
	JOINT LeftUpLeg
	{
		OFFSET 3.76699 0.00000 0.00000
		CHANNELS 3 Xrotation Yrotation Zrotation
		JOINT LeftLeg
		{
			OFFSET 0.00000 -18.01768 0.00000
			CHANNELS 3 Xrotation Yrotation Zrotation
			JOINT LeftFoot
			{
				OFFSET 0.00000 -16.88108 0.00000
				CHANNELS 3 Xrotation Yrotation Zrotation
				JOINT LeftToeBase
				{
					OFFSET 0.00000 -1.49359 5.57418
					CHANNELS 3 Xrotation Yrotation Zrotation
					End Site
					{
						OFFSET 0.00000 0.00000 2.95275
					}
				}
			}
		}
	}
	JOINT Spine
	{
		OFFSET 0.00000 7.77970 0.00000
		CHANNELS 3 Xrotation Yrotation Zrotation
		JOINT RightShoulder
		{
			OFFSET 0.00000 10.94176 0.00000
			CHANNELS 3 Xrotation Yrotation Zrotation
			JOINT RightArm
			{
				OFFSET -7.70894 0.00000 0.00000
				CHANNELS 3 Xrotation Yrotation Zrotation
				JOINT RightForeArm
				{
					OFFSET -11.52135 0.00000 0.00000
					CHANNELS 3 Yrotation Zrotation Xrotation
					JOINT RightHand
					{
						OFFSET -10.17590 0.00000 0.00000
						CHANNELS 3 Xrotation Yrotation Zrotation
						End Site
						{
							OFFSET -3.93700 0.00000 0.00000
						}
						JOINT RightHandThumb1
						{
							OFFSET 0.00000 0.00000 0.00000
							CHANNELS 3 Xrotation Zrotation Yrotation
							End Site
							{
								OFFSET 0.00000 0.00000 3.93700
							}
						}
					}
				}
			}
		}
		JOINT LeftShoulder
		{
			OFFSET 0.00000 10.94176 0.00000
			CHANNELS 3 Xrotation Yrotation Zrotation
			JOINT LeftArm
			{
				OFFSET 7.70894 0.00000 0.00000
				CHANNELS 3 Xrotation Yrotation Zrotation
				JOINT LeftForeArm
				{
					OFFSET 11.52135 0.00000 0.00000
					CHANNELS 3 Yrotation Zrotation Xrotation
					JOINT LeftHand
					{
						OFFSET 10.17590 0.00000 0.00000
						CHANNELS 3 Xrotation Yrotation Zrotation
						End Site
						{
							OFFSET 3.93700 0.00000 0.00000
						}
						JOINT LeftHandThumb1
						{
							OFFSET 0.00000 0.00000 0.00000
							CHANNELS 3 Xrotation Zrotation Yrotation
							End Site
							{
								OFFSET 0.00000 0.00000 3.93700
							}
						}
					}
				}
			}
		}
		JOINT Head
		{
			OFFSET 0.00000 16.64604 0.00000
			CHANNELS 3 Xrotation Yrotation Zrotation
			End Site
			{
				OFFSET 0.00000 4.52755 0.00000
			}
		}
	}
}
MOTION
Frames:	15
Frame Time: 0.008333
-2.3517 37.2463 2.4992 0.9487 14.1012 -0.1121 9.9801 -10.0277 -1.5536 -3.9290 0.0000 -0.0000 -5.9196 -22.9282 12.1819 8.5947 -0.0000 -0.0000 5.9836 -1.8624 2.3092 -5.0395 0.0000 -0.0000 -5.5064 18.1952 -11.9171 14.6596 -0.0000 -0.0000 -4.6973 9.7145 0.0498 -0.2040 -20.6653 -42.0375 -118.3486 -1.0191 13.9747 133.1338 -0.0000 -54.0800 -0.2852 -5.4004 -3.0275 33.1476 -0.0000 -26.2537 23.2254 -4.9095 11.5481 -15.2798 -44.7099 -74.1766 -29.1117 0.0000 -8.8281 -0.1630 -3.0551 -3.0563 32.8623 0.0000 24.3270 30.5627 -28.8395 -7.4379
-2.3524 37.2479 2.4981 0.9710 14.1851 -0.1101 9.9713 -10.0682 -1.5465 -3.9385 0.0000 -0.0000 -5.9176 -22.9821 12.1954 8.6656 -0.0000 -0.0000 5.9459 -1.9147 2.3083 -5.0316 0.0000 -0.0000 -5.4846 18.1730 -11.9500 14.6632 -0.0000 -0.0000 -4.7085 9.7023 0.0308 -0.2357 -20.6793 -42.0606 -118.6678 -1.0270 14.0290 133.0318 0.0000 -54.1742 -0.2987 -5.4637 -3.1343 33.1476 -0.0000 -26.2537 23.1853 -4.9285 11.5668 -15.3767 -44.7058 -74.2128 -29.1799 0.0000 -8.8472 -0.1755 -2.9773 -3.3750 32.8623 0.0000 24.3270 30.5959 -28.8832 -7.3764
-2.3533 37.2485 2.4967 0.9908 14.2627 -0.1147 9.9663 -10.0954 -1.5325 -3.9466 0.0000 -0.0000 -5.9155 -23.0294 12.1922 8.6429 -0.0000 -0.0000 5.9163 -1.9559 2.3144 -5.0372 0.0000 -0.0000 -5.4566 18.1481 -11.9627 14.5908 -0.0000 -0.0000 -4.7135 9.6842 0.0374 -0.2716 -20.7160 -42.1076 -118.9608 -1.0104 14.1199 132.9606 0.0000 -54.2028 -0.3019 -5.4217 -3.1914 33.1476 -0.0000 -26.2537 23.1671 -4.9411 11.5711 -15.4671 -44.6972 -74.2222 -29.2686 0.0000 -8.9251 -0.1726 -2.9996 -3.2940 32.8623 0.0000 24.3270 30.6152 -28.9020 -7.3500
-2.3549 37.2498 2.4952 1.0101 14.3370 -0.1182 9.9615 -10.1137 -1.5189 -3.9543 0.0000 -0.0000 -5.9065 -23.0812 12.1946 8.6459 -0.0000 -0.0000 5.8901 -1.9909 2.3223 -5.0470 0.0000 -0.0000 -5.4289 18.1128 -11.9777 14.6114 -0.0000 -0.0000 -4.7108 9.6727 0.0294 -0.3531 -20.6822 -42.1538 -119.1455 -0.9735 14.1368 132.9348 0.0000 -54.2939 -0.3098 -5.3968 -3.2905 33.1476 -0.0000 -26.2537 23.1372 -4.9473 11.5820 -15.5499 -44.6997 -74.2334 -29.3574 -0.0000 -8.9774 -0.1699 -2.9947 -3.2480 32.8623 0.0000 24.3270 30.6006 -28.9322 -7.2755
-2.3557 37.2502 2.4944 1.0169 14.4079 -0.1148 9.9655 -10.1388 -1.5114 -3.9579 0.0000 -0.0000 -5.9057 -23.1177 12.1564 8.6400 -0.0000 -0.0000 5.8759 -2.0282 2.3241 -5.0525 0.0000 -0.0000 -5.4093 18.0887 -11.9778 14.5894 -0.0000 -0.0000 -4.6958 9.6523 0.0229 -0.4049 -20.6722 -42.1984 -119.3679 -0.9238 14.1767 132.9339 -0.0000 -54.4014 -0.3260 -5.4573 -3.4235 33.1476 -0.0000 -26.2537 23.1210 -4.9635 11.6009 -15.6522 -44.6227 -74.2738 -29.4784 0.0000 -9.0038 -0.1506 -3.0347 -2.8419 32.8623 0.0000 24.3270 30.5802 -28.9691 -7.2532
-2.3567 37.2503 2.4940 1.0233 14.4834 -0.1121 9.9684 -10.2036 -1.5021 -3.9603 0.0000 -0.0000 -5.9103 -23.1302 12.1913 8.6603 -0.0000 -0.0000 5.8609 -2.0472 2.3258 -5.0601 0.0000 -0.0000 -5.3989 18.0508 -12.0035 14.6716 -0.0000 -0.0000 -4.6826 9.6209 0.0079 -0.4131 -20.7115 -42.2098 -119.6160 -0.8580 14.2786 132.9581 0.0000 -54.4074 -0.3347 -5.5298 -3.4695 33.1476 -0.0000 -26.2537 23.0944 -4.9742 11.6306 -15.7590 -44.6071 -74.3421 -29.5265 0.0000 -8.9221 -0.1518 -3.0661 -2.8350 32.8623 0.0000 24.3270 30.5738 -28.9898 -7.2076
-2.3585 37.2501 2.4932 1.0285 14.5479 -0.1144 9.9817 -10.1887 -1.4880 -3.9750 0.0000 -0.0000 -5.9101 -23.2051 12.1799 8.6630 -0.0000 -0.0000 5.8545 -2.0800 2.3367 -5.0767 0.0000 -0.0000 -5.3867 18.0267 -12.0510 14.6884 -0.0000 -0.0000 -4.6673 9.6026 0.0020 -0.4608 -20.6917 -42.2495 -119.7515 -0.7722 14.3395 133.0085 -0.0000 -54.3765 -0.3285 -5.4811 -3.4349 33.1476 -0.0000 -26.2537 23.0691 -5.0067 11.6572 -15.8304 -44.6107 -74.3651 -29.5946 0.0000 -8.9174 -0.1621 -2.9854 -3.1097 32.8623 0.0000 24.3270 30.5580 -29.0021 -7.1695
-2.3589 37.2499 2.4926 1.0284 14.6083 -0.1068 9.9848 -10.2381 -1.4854 -3.9663 0.0000 -0.0000 -5.9310 -23.2062 12.1434 8.6813 -0.0000 -0.0000 5.8504 -2.0885 2.3328 -5.0864 0.0000 -0.0000 -5.3597 17.9829 -12.0714 14.6175 -0.0000 -0.0000 -4.6465 9.5811 -0.0135 -0.4680 -20.6963 -42.2727 -119.9050 -0.6668 14.3975 133.0701 -0.0000 -54.3327 -0.3159 -5.5054 -3.2888 33.1476 -0.0000 -26.2537 23.0518 -5.0066 11.6887 -15.9694 -44.6201 -74.4447 -29.6128 -0.0000 -8.9387 -0.1614 -2.9813 -3.1009 32.8623 0.0000 24.3270 30.5498 -29.0019 -7.1177
-2.3610 37.2487 2.4941 1.0264 14.6656 -0.1095 9.9984 -10.2861 -1.4701 -3.9644 0.0000 -0.0000 -5.9325 -23.1999 12.1528 8.6368 -0.0000 -0.0000 5.8367 -2.0179 2.3386 -5.0755 0.0000 -0.0000 -5.3665 17.8633 -12.0568 14.6328 -0.0000 -0.0000 -4.6338 9.5620 -0.0225 -0.4665 -20.7087 -42.2967 -120.0087 -0.5484 14.4653 133.1456 -0.0000 -54.3054 -0.3120 -5.4848 -3.2605 33.1476 -0.0000 -26.2537 23.0630 -5.0145 11.7299 -16.0907 -44.6392 -74.4944 -29.6485 0.0000 -8.9412 -0.1598 -2.9899 -3.0605 32.8623 0.0000 24.3270 30.5663 -29.0686 -7.0763
-2.3611 37.2473 2.4932 1.0282 14.7347 -0.1138 10.0069 -10.3898 -1.4503 -3.9710 0.0000 -0.0000 -5.9443 -23.1756 12.1375 8.6548 -0.0000 -0.0000 5.8502 -1.9265 2.3454 -5.1455 0.0000 -0.0000 -5.3216 17.7196 -12.1064 14.6772 -0.0000 -0.0000 -4.6166 9.5323 -0.0131 -0.4930 -20.7236 -42.3593 -120.0482 -0.4267 14.5168 133.2401 0.0000 -54.2331 -0.3006 -5.4786 -3.1451 33.1476 -0.0000 -26.2537 23.0361 -5.0286 11.7458 -16.1793 -44.6817 -74.5377 -29.6621 0.0000 -8.9462 -0.1541 -3.1086 -2.8400 32.8623 0.0000 24.3270 30.5774 -29.0822 -7.0286
-2.3614 37.2461 2.4938 1.0254 14.7862 -0.1012 10.0274 -10.4032 -1.4517 -3.9896 0.0000 -0.0000 -5.9589 -23.2078 12.1095 8.6348 -0.0000 -0.0000 5.8253 -1.8377 2.3295 -5.1133 0.0000 -0.0000 -5.3288 17.6041 -12.1136 14.6616 -0.0000 -0.0000 -4.6011 9.5151 -0.0377 -0.4943 -20.7400 -42.3949 -120.0898 -0.2920 14.5905 133.3378 -0.0000 -54.2202 -0.3141 -5.5432 -3.2485 33.1476 -0.0000 -26.2537 23.0313 -5.0345 11.7801 -16.2490 -44.7418 -74.5590 -29.7234 0.0000 -9.0113 -0.1434 -3.1236 -2.6294 32.8623 0.0000 24.3270 30.6177 -29.0892 -6.9493
-2.3643 37.2453 2.4949 1.0276 14.8287 -0.1034 10.0275 -10.3930 -1.4457 -3.9751 0.0000 -0.0000 -5.9743 -23.2455 12.1441 8.6230 -0.0000 -0.0000 5.8133 -1.8042 2.3384 -5.1077 0.0000 -0.0000 -5.3220 17.5230 -12.1308 14.6379 -0.0000 -0.0000 -4.5916 9.5162 -0.0485 -0.5046 -20.7741 -42.4405 -120.0967 -0.1570 14.6653 133.4316 0.0000 -54.1771 -0.3374 -5.5062 -3.5123 33.1476 -0.0000 -26.2537 23.0134 -5.0576 11.8038 -16.2592 -44.8245 -74.5250 -29.7967 -0.0000 -9.0324 -0.1431 -3.0950 -2.6485 32.8623 0.0000 24.3270 30.6693 -29.0963 -6.8573
-2.3676 37.2444 2.4973 1.0223 14.8750 -0.1074 10.0503 -10.4849 -1.4224 -3.9889 0.0000 -0.0000 -5.9766 -23.1957 12.1391 8.6368 -0.0000 -0.0000 5.8181 -1.8097 2.3529 -5.1129 0.0000 -0.0000 -5.3399 17.4912 -12.1267 14.7086 -0.0000 -0.0000 -4.5786 9.5071 -0.0599 -0.5193 -20.7860 -42.4841 -120.0248 -0.0007 14.7202 133.5116 0.0000 -53.9768 -0.3231 -5.6131 -3.2992 33.1476 -0.0000 -26.2537 23.0295 -5.0552 11.8278 -16.3204 -44.9522 -74.5017 -29.8274 -0.0000 -9.0266 -0.1430 -3.1490 -2.6013 32.8623 0.0000 24.3270 30.7356 -29.1209 -6.7601
-2.3707 37.2438 2.4999 1.0182 14.9167 -0.1059 10.0665 -10.5469 -1.4081 -3.9971 0.0000 -0.0000 -5.9721 -23.1767 12.1444 8.6165 -0.0000 -0.0000 5.8288 -1.8462 2.3624 -5.1286 0.0000 -0.0000 -5.3233 17.5025 -12.1525 14.6847 -0.0000 -0.0000 -4.5696 9.5014 -0.0860 -0.5242 -20.7718 -42.5305 -119.9201 0.1606 14.7230 133.5778 -0.0000 -53.8863 -0.3181 -5.7415 -3.1767 33.1476 -0.0000 -26.2537 23.0231 -5.0612 11.8576 -16.3664 -45.0357 -74.5080 -29.8627 0.0000 -9.0150 -0.1383 -3.1455 -2.5184 32.8623 0.0000 24.3270 30.8004 -29.1643 -6.6731
-2.3746 37.2429 2.5019 1.0186 14.9536 -0.1132 10.0811 -10.5843 -1.3862 -4.0075 0.0000 -0.0000 -5.9791 -23.1732 12.1247 8.6645 -0.0000 -0.0000 5.8285 -1.8789 2.3786 -5.1346 0.0000 -0.0000 -5.3244 17.4986 -12.1376 14.6535 -0.0000 -0.0000 -4.5639 9.5091 -0.1003 -0.5572 -20.7648 -42.5966 -119.7592 0.3164 14.7259 133.6104 0.0000 -53.9395 -0.3211 -5.7835 -3.1837 33.1476 -0.0000 -26.2537 23.0111 -5.0720 11.8784 -16.4166 -45.1308 -74.5062 -29.8633 0.0000 -9.0077 -0.1416 -3.1656 -2.5623 32.8623 0.0000 24.3270 30.8641 -29.1629 -6.5665
